first trial
nRows=39
nColumns=38

# SIMM Motion File Header:
name Sujet_06_velo_60.mvnx
datacolumns 38
datarows 39
otherdata 1
range 0.0000 0.6340
endheader
time pelvis_tilt  pelvis_list  pelvis_rotation  pelvis_tx  pelvis_ty  pelvis_tz  hip_flexion_r  hip_adduction_r  hip_rotation_r  knee_angle_r  ankle_angle_r  subtalar_angle_r  mtp_angle_r  hip_flexion_l  hip_adduction_l  hip_rotation_l  knee_angle_l  ankle_angle_l  subtalar_angle_l  mtp_angle_l  lumbar_extension  lumbar_bending  lumbar_rotation  arm_flex_r  arm_add_r  arm_rot_r  elbow_flex_r  pro_sup_r  wrist_flex_r  wrist_dev_r  arm_flex_l  arm_add_l  arm_rot_l  elbow_flex_l  pro_sup_l  wrist_flex_l  wrist_dev_l
0.0000	-10.5080	2.0765	-12.1639	0.0000	1.2500	-0.0000	62.1430	-0.3921	-0.6750	98.5188	-1.4339	-8.5545	0.0000	59.8961	-5.5356	-4.9598	55.1501	-0.7302	1.2496	0.0000	-14.3921	-2.4160	-0.0003	88.1849	9.5386	18.6897	2.9735	117.8086	-20.5794	-12.2965	88.7448	-9.6979	27.7893	16.3295	122.7106	-19.0084	-6.1975	
0.0170	-10.2153	1.8855	-12.4454	0.0000	1.2500	-0.0000	63.6169	0.4533	-1.0905	101.0069	-1.3186	-7.4062	0.0000	56.8523	-5.4518	-5.7800	51.8390	-1.5092	1.3892	-0.0000	-14.4720	-2.2719	0.0517	88.2446	9.6600	18.6842	2.8964	117.9962	-20.4668	-12.0891	88.4527	-9.7491	27.5141	16.2578	122.7928	-19.0451	-6.2502	
0.0340	-9.9215	1.6961	-12.7257	0.0000	1.2500	-0.0000	65.0952	1.2851	-1.5398	103.5221	-1.2049	-6.2544	-0.0000	53.8133	-5.3273	-6.6105	48.5226	-2.2890	1.5325	-0.0000	-14.5528	-2.1280	0.1032	88.3037	9.7816	18.6786	2.8192	118.1836	-20.3549	-11.8822	88.1603	-9.7983	27.2385	16.1861	122.8747	-19.0818	-6.3029	
0.0500	-9.6885	1.5112	-13.0284	0.0000	1.2500	-0.0000	66.6854	2.0884	-1.8663	105.7378	-0.8948	-5.5841	0.0000	51.0072	-5.2926	-7.3163	45.5249	-3.2993	1.8489	-0.0000	-14.6281	-2.0122	0.1669	88.4073	9.9099	18.6392	2.7205	118.3741	-20.2232	-11.6827	87.9378	-9.8240	27.0302	16.0898	122.8432	-19.1377	-6.3446	
0.0670	-9.5511	1.3295	-13.3854	0.0000	1.2500	-0.0000	68.4864	2.8574	-1.9646	107.5290	-0.2911	-5.7107	-0.0000	48.4845	-5.4370	-7.8231	42.8930	-4.7161	2.4433	0.0000	-14.6956	-1.9387	0.2486	88.5925	10.0512	18.5332	2.5963	118.5831	-20.0641	-11.4930	87.8291	-9.8539	26.8487	16.0012	122.7053	-19.2181	-6.3614	
0.0840	-9.4742	1.1513	-13.7657	0.0000	1.2500	-0.0000	70.3954	3.6151	-1.9459	108.9923	0.5071	-6.3193	-0.0000	46.1864	-5.6920	-8.2214	40.5862	-6.3712	3.2081	-0.0000	-14.7572	-1.8934	0.3429	88.8227	10.1991	18.3929	2.4514	118.7955	-19.8852	-11.3105	87.7906	-9.8622	26.7348	15.8875	122.4541	-19.3177	-6.3678	
0.1000	-9.4141	0.9813	-14.0995	0.0000	1.2500	-0.0000	72.2175	4.3878	-1.9747	110.1258	1.4070	-6.9610	-0.0000	44.1753	-5.9598	-8.6207	38.7999	-7.9800	4.0007	-0.0000	-14.8130	-1.8618	0.4459	89.0327	10.3415	18.2829	2.2789	118.9683	-19.6894	-11.1345	87.7623	-9.7477	26.8782	15.6242	121.9536	-19.4399	-6.3955	
0.1170	-9.3700	0.8167	-14.3629	0.0000	1.2500	-0.0000	73.9143	5.1940	-2.1116	110.9289	2.4448	-7.5349	0.0000	42.4664	-6.2248	-9.0578	37.5698	-9.4924	4.8316	0.0000	-14.8585	-1.8443	0.5613	89.1992	10.4745	18.2341	2.0683	119.0716	-19.4904	-10.9803	87.7035	-9.4384	27.5004	15.1393	120.9833	-19.6124	-6.4691	
0.1340	-9.3435	0.6599	-14.5801	0.0000	1.2500	-0.0000	75.5271	6.0083	-2.2870	111.4037	3.5824	-8.1401	-0.0000	41.0445	-6.5132	-9.4856	36.8601	-10.9679	5.7006	0.0000	-14.8976	-1.8403	0.6856	89.3455	10.6019	18.2158	1.8295	119.1348	-19.2749	-10.8331	87.6512	-9.0058	28.3791	14.4871	119.7509	-19.8081	-6.5659	
0.1500	-9.2940	0.5231	-14.7524	0.0000	1.2500	-0.0000	76.9810	6.7847	-2.4604	111.5572	4.6236	-8.6454	-0.0000	39.9304	-6.7887	-9.8760	36.7581	-12.2747	6.4504	-0.0000	-14.9434	-1.8336	0.8033	89.4767	10.7233	18.2016	1.5849	119.2046	-19.0063	-10.6484	87.6647	-8.5626	29.0378	13.7439	118.7679	-19.9486	-6.6449	
0.1670	-9.2020	0.4099	-14.8705	0.0000	1.2500	-0.0000	78.2838	7.5230	-2.6146	111.4015	5.4855	-9.0075	0.0000	39.1598	-7.0430	-10.2316	37.3524	-13.3690	7.0252	-0.0000	-15.0031	-1.8158	0.9101	89.6019	10.8422	18.1408	1.3284	119.3180	-18.6456	-10.3875	87.8029	-8.1363	29.2395	12.9021	118.2876	-19.9947	-6.6869	
0.1840	-9.0876	0.3168	-14.9436	0.0000	1.2500	-0.0000	79.4262	8.2265	-2.7541	110.9258	6.2567	-9.2860	-0.0000	38.6981	-7.2951	-10.5397	38.5545	-14.2823	7.4715	-0.0000	-15.0696	-1.7950	1.0105	89.7120	10.9549	18.0838	1.0663	119.4380	-18.2355	-10.0934	88.0121	-7.7009	29.2196	11.9841	118.0623	-19.9852	-6.7082	
0.2000	-8.9706	0.2450	-15.0013	0.0000	1.2500	-0.0000	80.3056	8.8564	-2.8652	110.1032	7.0001	-9.5068	0.0000	38.4605	-7.5482	-10.7499	40.1858	-14.9883	7.7823	0.0000	-15.1344	-1.7803	1.1019	89.7847	11.0498	18.1558	0.8400	119.5002	-17.8605	-9.8431	88.1859	-7.2874	29.2119	11.1248	117.8600	-19.9578	-6.7206	
0.2170	-8.8525	0.1956	-15.0594	0.0000	1.2500	-0.0000	80.8967	9.4166	-2.9187	108.9108	7.7400	-9.6591	-0.0000	38.4466	-7.8067	-10.8400	42.2601	-15.4987	7.9607	-0.0000	-15.1964	-1.7724	1.1866	89.7938	11.1183	18.4872	0.6643	119.4357	-17.5379	-9.6641	88.2716	-6.8832	29.2787	10.3486	117.6264	-19.9174	-6.7250	
0.2340	-8.7319	0.1674	-15.1023	0.0000	1.2500	-0.0000	81.2209	9.9077	-2.9305	107.3720	8.4523	-9.7554	0.0000	38.6580	-8.0681	-10.8280	44.7633	-15.7990	8.0074	0.0000	-15.2567	-1.7705	1.2623	89.7647	11.1694	18.9478	0.5223	119.3133	-17.2466	-9.5275	88.3205	-6.4998	29.3585	9.6311	117.4170	-19.8589	-6.7202	
0.2500	-8.6243	0.1591	-15.1114	0.0000	1.2500	-0.0000	81.2447	10.2864	-2.9528	105.5272	9.1252	-9.8429	-0.0000	39.0126	-8.3236	-10.7262	47.4749	-15.8250	7.9125	0.0000	-15.3104	-1.7809	1.3204	89.7519	11.2192	19.2720	0.4084	119.2753	-17.0115	-9.4211	88.3794	-6.2015	29.4998	9.0298	117.1656	-19.8047	-6.7157	
0.2670	-8.5334	0.1773	-15.0817	0.0000	1.2500	-0.0000	80.9380	10.5370	-2.9965	103.3603	9.7859	-9.9311	0.0000	39.4824	-8.5699	-10.5204	50.3538	-15.5017	7.6404	-0.0000	-15.3586	-1.8108	1.3570	89.7911	11.2699	19.3207	0.3397	119.4234	-16.8512	-9.3406	88.4632	-6.0401	29.7615	8.5853	116.8071	-19.7612	-6.7153	
0.2840	-8.4555	0.2151	-15.0183	0.0000	1.2500	-0.0000	80.3301	10.6757	-3.0460	100.8845	10.4072	-10.0009	-0.0000	40.0971	-8.8065	-10.2240	53.4419	-14.9028	7.2259	0.0000	-15.4004	-1.8529	1.3760	89.8473	11.3189	19.2329	0.3013	119.6564	-16.7464	-9.2872	88.5559	-5.9636	30.0858	8.2582	116.4110	-19.7217	-6.7155	
0.3000	-8.3936	0.2504	-14.9189	0.0000	1.2500	-0.0000	79.4790	10.7073	-3.1158	98.1832	10.8959	-10.0526	0.0000	40.8606	-9.0285	-9.8926	56.6445	-14.1873	6.7535	-0.0000	-15.4277	-1.8917	1.3802	89.8692	11.3756	19.1596	0.2407	119.8124	-16.6674	-9.2564	88.6578	-5.8798	30.3459	7.9869	116.1140	-19.6892	-6.7157	
0.3170	-8.3511	0.2744	-14.7745	0.0000	1.2500	-0.0000	78.3882	10.6248	-3.2005	95.2612	11.2323	-10.0902	0.0000	41.7718	-9.2241	-9.5411	59.9431	-13.3365	6.1778	-0.0000	-15.4354	-1.9195	1.3689	89.8319	11.4460	19.1574	0.1401	119.8166	-16.6135	-9.2471	88.7684	-5.7599	30.4532	7.7730	116.0037	-19.6672	-6.7139	
0.3340	-8.3246	0.2959	-14.5939	0.0000	1.2500	-0.0000	77.0557	10.4384	-3.3144	92.1119	11.4360	-10.1068	-0.0000	42.8323	-9.3993	-9.1554	63.3583	-12.3804	5.5245	0.0000	-15.4287	-1.9441	1.3427	89.7603	11.5242	19.1697	0.0162	119.7431	-16.5855	-9.2600	88.8885	-5.6329	30.4960	7.6173	115.9941	-19.6522	-6.7122	
0.3500	-8.3077	0.3195	-14.4020	0.0000	1.2500	-0.0000	75.5309	10.1803	-3.5020	88.8007	11.4722	-10.0901	-0.0000	44.0498	-9.5767	-8.7465	66.8534	-11.5428	4.9845	0.0000	-15.4155	-1.9738	1.3069	89.6779	11.6012	19.1779	-0.1326	119.6520	-16.5554	-9.2944	89.0204	-5.4934	30.6124	7.4570	115.9606	-19.6370	-6.7154	
0.3670	-8.2976	0.3416	-14.1978	0.0000	1.2500	-0.0000	73.8172	9.8605	-3.8010	85.3272	11.3118	-10.0367	-0.0000	45.4378	-9.7564	-8.3531	70.4601	-10.8694	4.6410	-0.0000	-15.4007	-2.0114	1.2631	89.6050	11.6701	19.1683	-0.3220	119.5708	-16.5011	-9.3524	89.1853	-5.3355	30.9045	7.2512	115.8168	-19.6198	-6.7272	
0.3840	-8.2971	0.3659	-13.9823	0.0000	1.2500	-0.0000	71.9118	9.4799	-4.1851	81.6887	10.9834	-9.9538	0.0000	46.9833	-9.9329	-7.9366	74.1445	-10.3057	4.4177	-0.0000	-15.3795	-2.0542	1.2096	89.5215	11.7378	19.1545	-0.5363	119.4719	-16.4446	-9.4314	89.3611	-5.1643	31.2699	7.0403	115.6488	-19.6025	-6.7440	
0.4000	-8.3074	0.4090	-13.7838	0.0000	1.2500	-0.0000	69.8539	9.0548	-4.5984	77.9458	10.5380	-9.8487	0.0000	48.6553	-10.1180	-7.3906	77.7716	-9.9131	4.2767	-0.0000	-15.3451	-2.1022	1.1470	89.3896	11.8165	19.1582	-0.7304	119.3323	-16.4253	-9.5244	89.4850	-4.9913	31.5401	6.8839	115.5908	-19.5825	-6.7595	
0.4170	-8.3219	0.4748	-13.6299	0.0000	1.2500	-0.0000	67.6351	8.6027	-5.0408	74.0921	9.9715	-9.7448	-0.0000	50.4571	-10.3165	-6.6768	81.3476	-9.7495	4.2440	-0.0000	-15.2932	-2.1603	1.0825	89.1777	11.9161	19.1675	-0.8828	119.1380	-16.4654	-9.6288	89.5128	-4.8173	31.6329	6.8042	115.7043	-19.5583	-6.7695	
0.4340	-8.3471	0.5593	-13.4929	0.0000	1.2500	-0.0000	65.2637	8.1097	-5.5205	70.1319	9.2866	-9.6245	0.0000	52.3882	-10.5100	-5.8315	84.8677	-9.7547	4.3059	-0.0000	-15.2281	-2.2236	1.0089	88.9174	12.0272	19.1946	-1.0155	118.9025	-16.5435	-9.7482	89.4895	-4.6426	31.6309	6.7796	115.9282	-19.5316	-6.7782	
0.4500	-8.4031	0.6690	-13.3172	0.0000	1.2500	-0.0000	62.8052	7.5376	-5.9968	66.1440	8.5432	-9.4324	0.0000	54.4122	-10.6722	-4.8627	88.1833	-9.8150	4.3601	0.0000	-15.1562	-2.2773	0.9048	88.6660	12.1318	19.2971	-1.1495	118.6436	-16.6332	-9.8843	89.4873	-4.4790	31.6138	6.8044	116.2134	-19.5048	-6.7921	
0.4670	-8.5031	0.8146	-13.1055	0.0000	1.2500	-0.0000	60.2365	6.8674	-6.5011	62.0861	7.8000	-9.1556	0.0000	56.5305	-10.8039	-3.7375	91.2638	-9.9902	4.3845	-0.0000	-15.0723	-2.3210	0.7620	88.4224	12.2523	19.5264	-1.3160	118.3297	-16.7184	-10.0310	89.5458	-4.3326	31.6709	6.8636	116.4834	-19.4870	-6.8139	
0.4840	-8.6335	0.9858	-12.8548	0.0000	1.2500	-0.0000	57.5817	6.1223	-7.0255	58.0041	6.9921	-8.8061	0.0000	58.7438	-10.8880	-2.4962	94.1464	-10.2206	4.3982	-0.0000	-14.9814	-2.3551	0.5888	88.1871	12.3653	19.8313	-1.4850	117.9918	-16.8150	-10.1939	89.6255	-4.1970	31.7131	6.9735	116.8154	-19.4690	-6.8407	
0.5000	-8.7750	1.1562	-12.4995	0.0000	1.2500	-0.0000	54.9776	5.3218	-7.4747	54.1170	5.9933	-8.3609	-0.0000	61.0115	-10.8745	-1.2662	96.7816	-10.2135	4.3578	0.0000	-14.9049	-2.3661	0.3881	88.0196	12.3849	20.1161	-1.5844	117.7437	-16.9448	-10.3923	89.6796	-4.0640	31.5523	7.1774	117.3913	-19.4261	-6.8702	
0.5170	-8.9317	1.3209	-12.0018	0.0000	1.2500	-0.0000	52.4230	4.4417	-7.8167	50.4213	4.7402	-7.7911	-0.0000	63.3475	-10.7524	-0.0731	99.1567	-9.8607	4.2506	-0.0000	-14.8505	-2.3453	0.1538	87.9878	12.2526	20.3356	-1.5809	117.6652	-17.1117	-10.6431	89.6883	-3.9341	30.9740	7.5489	118.4507	-19.3412	-6.9093	
0.5340	-9.0987	1.4861	-11.3993	0.0000	1.2500	-0.0000	49.9168	3.5040	-8.1021	46.9324	3.2941	-7.1144	0.0000	65.7330	-10.5253	1.0859	101.2793	-9.2702	4.0902	-0.0000	-14.8101	-2.3009	-0.1080	88.0247	12.0268	20.5337	-1.5050	117.6783	-17.3132	-10.9299	89.6723	-3.8053	30.1929	8.0178	119.7550	-19.2311	-6.9513	
0.5500	-9.2437	1.6410	-10.7399	0.0000	1.2500	-0.0000	47.5956	2.5895	-8.3431	43.8964	1.7192	-6.3759	0.0000	68.0738	-10.1781	2.1234	103.1232	-8.4740	3.8732	0.0000	-14.7812	-2.2443	-0.3761	87.9881	11.7979	20.7469	-1.3782	117.6608	-17.5630	-11.2224	89.6460	-3.6669	29.6638	8.4106	120.7685	-19.1218	-6.9730	
0.5670	-9.3589	1.7717	-9.9992	0.0000	1.2500	-0.0000	45.4898	1.6967	-8.4758	41.3626	-0.0941	-5.5269	-0.0000	70.3575	-9.6811	2.9918	104.6876	-7.3656	3.5811	-0.0000	-14.7598	-2.1715	-0.6489	87.7844	11.5766	21.0252	-1.1740	117.5466	-17.9065	-11.5368	89.6052	-3.4998	29.6697	8.6236	121.1872	-19.0270	-6.9630	
0.5840	-9.4522	1.8918	-9.2018	0.0000	1.2500	-0.0000	43.5653	0.8182	-8.5491	39.2721	-2.0322	-4.6130	0.0000	72.5877	-9.0764	3.7207	105.9665	-6.0523	3.2272	-0.0000	-14.7497	-2.0864	-0.9279	87.5077	11.3518	21.3177	-0.9184	117.4016	-18.2996	-11.8578	89.5525	-3.3259	29.9276	8.7561	121.3145	-18.9335	-6.9326	
0.6000	-9.5150	2.0293	-8.4709	0.0000	1.2500	-0.0000	41.8651	0.0250	-8.7215	37.7060	-3.6941	-3.8232	0.0000	74.6976	-8.4678	4.3570	106.9278	-4.8883	2.8628	-0.0000	-14.7600	-2.0128	-1.1968	87.2968	11.1822	21.5110	-0.7128	117.3017	-18.6195	-12.1066	89.5135	-3.1955	30.0426	8.9386	121.5268	-18.8275	-6.8932	
0.6170	-9.5377	2.2041	-7.8369	0.0000	1.2500	-0.0000	40.3964	-0.6745	-9.0482	36.6940	-4.9588	-3.1949	-0.0000	76.7066	-7.8950	4.9432	107.5664	-4.0163	2.4882	-0.0000	-14.8015	-1.9575	-1.4593	87.2239	11.1040	21.5257	-0.6129	117.3059	-18.8016	-12.2366	89.5174	-3.1329	29.8013	9.2364	122.0240	-18.6915	-6.8474	
0.6340	-9.5297	2.3950	-7.2698	0.0000	1.2500	-0.0000	39.1550	-1.2953	-9.4484	36.2042	-5.9463	-2.6915	-0.0000	78.5994	-7.3346	5.4517	107.8890	-3.2957	2.1152	-0.0000	-14.8636	-1.9130	-1.7118	87.2157	11.0819	21.4424	-0.5639	117.3555	-18.9079	-12.2929	89.5360	-3.1123	29.4168	9.5842	122.6057	-18.5433	-6.7929	
